<?xml version="1.0" standalone="no"?>
<!DOCTYPE svg PUBLIC "-//W3C//DTD SVG 20010904//EN"
 "http://www.w3.org/TR/2001/REC-SVG-20010904/DTD/svg10.dtd">
<svg version="1.0" xmlns="http://www.w3.org/2000/svg"
 width="225.000000pt" height="225.000000pt" viewBox="0 0 225.000000 225.000000"
 preserveAspectRatio="xMidYMid meet">

<g transform="translate(0.000000,225.000000) scale(0.100000,-0.100000)"
fill="#000000" stroke="none">
<path d="M993 1923 c-13 -2 -23 -9 -23 -15 0 -6 10 -8 23 -4 12 3 50 6 85 6
34 0 62 4 62 10 0 10 -101 12 -147 3z"/>
<path d="M1160 1921 c0 -6 15 -11 34 -11 18 0 49 -3 67 -6 24 -5 31 -3 24 4
-15 15 -125 27 -125 13z"/>
<path d="M920 1900 c0 -5 7 -10 16 -10 8 0 12 5 9 10 -3 6 -10 10 -16 10 -5 0
-9 -4 -9 -10z"/>
<path d="M1300 1902 c0 -11 49 -26 58 -17 8 7 0 12 -31 20 -16 4 -27 3 -27 -3z"/>
<path d="M798 1865 c-69 -28 -103 -51 -90 -59 6 -3 12 1 16 9 3 8 13 15 22 15
23 0 134 43 134 53 0 12 -22 7 -82 -18z"/>
<path d="M1073 1883 c26 -2 68 -2 95 0 26 2 4 3 -48 3 -52 0 -74 -1 -47 -3z"/>
<path d="M1238 1873 c6 -2 18 -2 25 0 6 3 1 5 -13 5 -14 0 -19 -2 -12 -5z"/>
<path d="M1390 1870 c0 -5 7 -10 15 -10 8 0 15 5 15 10 0 6 -7 10 -15 10 -8 0
-15 -4 -15 -10z"/>
<path d="M1440 1852 c0 -10 45 -32 65 -32 7 0 15 -3 17 -8 4 -9 103 -82 112
-82 3 0 6 5 6 12 0 6 -3 8 -6 5 -4 -3 -15 5 -26 18 -11 14 -25 25 -33 25 -7 0
-15 4 -17 9 -3 8 -101 61 -113 61 -3 0 -5 -4 -5 -8z"/>
<path d="M1410 1825 c14 -8 30 -14 35 -14 6 0 -1 6 -15 14 -14 8 -29 14 -35
14 -5 0 1 -6 15 -14z"/>
<path d="M967 1779 c-16 -24 -23 -26 -59 -21 l-42 5 21 -35 c20 -34 20 -35 1
-71 -10 -20 -14 -37 -8 -37 5 0 10 8 10 18 0 13 2 14 9 3 5 -8 16 -11 31 -6
16 5 29 0 51 -21 l29 -28 0 32 c0 31 9 43 54 75 18 14 18 15 -15 26 -25 8 -38
21 -50 49 l-15 37 -17 -26z"/>
<path d="M556 1698 c-91 -91 -168 -198 -143 -198 6 0 26 23 42 52 31 53 194
225 208 220 5 -1 6 2 2 8 -3 5 -8 10 -11 10 -3 0 -47 -42 -98 -92z"/>
<path d="M1287 1780 c-18 -41 -35 -115 -30 -123 4 -6 1 -7 -7 -2 -10 6 -12 4
-7 -8 3 -10 2 -17 -3 -17 -6 0 -10 -5 -10 -11 0 -5 5 -7 11 -3 6 3 23 -6 39
-21 l28 -27 6 39 c5 29 15 43 39 57 l32 18 -34 18 c-25 13 -38 28 -47 56 -7
26 -13 34 -17 24z"/>
<path d="M1520 1777 c0 -2 28 -25 63 -52 34 -26 54 -39 44 -28 -18 20 -107 87
-107 80z"/>
<path d="M674 1748 c-43 -32 -93 -78 -134 -124 -19 -21 -1 -7 40 32 41 38 89
80 105 92 17 12 27 22 24 22 -3 0 -19 -10 -35 -22z"/>
<path d="M1189 1704 c19 -32 20 -37 6 -64 -19 -37 -19 -39 6 -33 14 4 19 12
16 24 -3 11 -2 19 3 19 6 0 19 26 24 52 0 3 4 10 9 14 14 15 6 19 -39 21 l-45
2 20 -35z"/>
<path d="M1646 1722 c-3 -5 0 -12 7 -15 23 -9 124 -140 163 -212 44 -82 42
-80 50 -73 7 8 -50 121 -70 137 -9 8 -16 19 -16 26 0 19 -127 149 -134 137z"/>
<path d="M751 1656 c-18 -19 -35 -26 -63 -26 l-38 0 17 -35 c15 -32 16 -38 0
-69 l-16 -34 32 9 c17 5 39 6 49 3 13 -4 21 3 30 23 6 15 18 35 24 43 11 12
11 25 1 63 l-12 48 -24 -25z"/>
<path d="M1694 1620 c53 -61 63 -71 39 -35 -12 17 -34 41 -49 55 -19 17 -15
10 10 -20z"/>
<path d="M1540 1625 c-21 -23 -30 -26 -63 -21 l-39 7 21 -34 c20 -33 19 -74
-3 -89 -17 -11 -3 -17 27 -11 24 5 26 8 15 22 -7 9 8 -1 35 -22 28 -23 47 -33
47 -25 0 8 -6 20 -12 27 -11 11 -10 13 5 8 11 -4 17 -1 17 8 0 8 14 22 30 32
37 22 37 26 0 40 -16 6 -33 20 -36 30 -18 56 -17 56 -44 28z m-35 -45 c3 -5 2
-10 -4 -10 -5 0 -13 5 -16 10 -3 6 -2 10 4 10 5 0 13 -4 16 -10z"/>
<path d="M790 1539 c-29 -47 -30 -53 -16 -68 15 -14 16 -12 16 22 0 33 5 41
36 59 26 15 32 23 22 29 -21 14 -25 11 -58 -42z"/>
<path d="M474 1540 c-15 -22 -25 -42 -23 -44 2 -2 16 16 31 40 34 55 28 58 -8
4z"/>
<path d="M1043 1533 c9 -2 23 -2 30 0 6 3 -1 5 -18 5 -16 0 -22 -2 -12 -5z"/>
<path d="M1168 1533 c6 -2 18 -2 25 0 6 3 1 5 -13 5 -14 0 -19 -2 -12 -5z"/>
<path d="M980 1520 c-18 -12 -2 -12 25 0 13 6 15 9 5 9 -8 0 -22 -4 -30 -9z"/>
<path d="M1797 1465 c15 -30 29 -53 31 -51 4 5 -46 106 -53 106 -3 0 7 -25 22
-55z"/>
<path d="M899 1482 c-24 -16 -53 -40 -64 -53 -17 -21 -16 -21 10 3 17 15 50
38 75 52 25 14 40 26 34 26 -5 0 -30 -13 -55 -28z"/>
<path d="M1281 1506 c2 -2 15 -9 29 -15 24 -11 24 -11 6 3 -16 13 -49 24 -35
12z"/>
<path d="M177 1493 c-4 -3 -7 -16 -6 -27 0 -19 1 -19 10 3 10 24 8 36 -4 24z"/>
<path d="M216 1473 c-13 -32 -7 -44 22 -41 19 2 27 8 25 22 -1 13 2 15 10 7 7
-7 7 -14 -2 -24 -9 -12 -6 -16 16 -20 15 -3 31 -3 35 0 10 6 10 43 1 43 -5 0
-29 7 -55 14 -41 13 -47 13 -52 -1z"/>
<path d="M1410 1418 c41 -45 50 -53 50 -45 0 2 -21 23 -47 47 l-48 45 45 -47z"/>
<path d="M386 1398 c-26 -26 -36 -46 -41 -83 -9 -59 3 -100 30 -100 11 0 19
-5 18 -12 -2 -6 6 -15 17 -18 56 -18 125 73 117 154 -6 50 -29 78 -74 87 -28
6 -37 2 -67 -28z m112 -32 c3 -3 0 -6 -6 -6 -7 0 -12 -14 -12 -30 0 -17 -7
-45 -16 -61 -12 -24 -21 -30 -42 -27 -24 3 -27 8 -30 45 -3 34 2 48 21 67 22
22 68 29 85 12z m9 -78 c-3 -8 -6 -5 -6 6 -1 11 2 17 5 13 3 -3 4 -12 1 -19z"/>
<path d="M1669 1404 c-19 -21 -31 -25 -61 -22 -21 2 -38 2 -38 1 0 -1 9 -17
19 -34 18 -29 18 -35 5 -60 -20 -39 -19 -41 22 -33 30 5 40 2 63 -20 l28 -27
7 40 c4 26 13 44 26 51 27 15 25 39 -5 50 -16 6 -25 17 -25 32 0 43 -14 50
-41 22z m31 -54 c0 -5 -4 -10 -9 -10 -6 0 -13 5 -16 10 -3 6 1 10 9 10 9 0 16
-4 16 -10z"/>
<path d="M231 1399 c-24 -20 -69 -149 -51 -149 5 0 15 -3 24 -6 11 -4 16 4 21
33 3 21 13 57 21 81 20 54 15 66 -15 41z"/>
<path d="M1865 1395 c3 -11 9 -32 12 -47 3 -16 9 -28 14 -28 16 0 9 34 -12 65
-12 18 -18 22 -14 10z"/>
<path d="M1832 1395 c0 -5 6 -26 13 -45 7 -19 14 -28 14 -20 0 8 -6 29 -14 45
-7 17 -13 26 -13 20z"/>
<path d="M581 1336 c-6 -28 -14 -61 -17 -73 -4 -14 -2 -23 5 -23 6 0 11 7 11
15 0 9 9 15 25 15 14 0 25 -4 25 -10 0 -5 -6 -10 -13 -10 -8 0 -22 -8 -31 -19
-15 -16 -15 -19 -1 -24 9 -4 15 -1 15 7 0 11 8 12 40 4 44 -11 75 -5 64 14 -5
8 -2 9 10 5 12 -5 19 1 26 19 13 33 13 54 0 54 -5 0 -11 -10 -11 -22 -1 -18
-2 -19 -6 -5 -3 10 0 24 6 30 17 21 -4 38 -71 57 l-65 18 -12 -52z m93 -26
c28 -10 35 -37 13 -46 -24 -9 -67 14 -67 36 0 22 15 25 54 10z"/>
<path d="M1861 1294 c0 -11 3 -14 6 -6 3 7 2 16 -1 19 -3 4 -6 -2 -5 -13z"/>
<path d="M1890 1293 c0 -5 5 -15 10 -23 8 -12 10 -11 10 8 0 12 -4 22 -10 22
-5 0 -10 -3 -10 -7z"/>
<path d="M1500 1285 c0 -5 5 -17 10 -25 5 -8 10 -10 10 -5 0 6 -5 17 -10 25
-5 8 -10 11 -10 5z"/>
<path d="M935 1272 c-18 -13 -32 -67 -23 -88 5 -10 26 -28 46 -39 48 -26 49
-51 3 -48 -21 1 -29 -2 -22 -7 9 -5 10 -10 2 -14 -15 -10 -34 3 -28 18 10 24
-8 39 -32 27 -27 -15 -14 -43 30 -65 43 -22 85 -20 109 4 30 30 25 110 -6 110
-8 0 -14 4 -14 8 0 5 -11 14 -25 20 -14 6 -25 16 -25 22 0 15 46 12 60 -5 9
-11 16 -12 31 -2 25 16 24 32 -3 51 -23 17 -85 21 -103 8z"/>
<path d="M1871 1244 c0 -11 3 -14 6 -6 3 7 2 16 -1 19 -3 4 -6 -2 -5 -13z"/>
<path d="M1900 1235 c0 -8 5 -15 10 -15 6 0 10 7 10 15 0 8 -4 15 -10 15 -5 0
-10 -7 -10 -15z"/>
<path d="M1106 1173 c-9 -38 -18 -75 -20 -83 -2 -8 -6 -23 -9 -32 -16 -42 -15
-46 11 -53 15 -3 35 -8 46 -12 12 -3 16 -1 12 6 -9 14 33 15 54 1 12 -8 12
-10 -5 -11 l-20 0 20 -8 c15 -6 22 -3 28 12 10 25 3 31 -53 46 -50 14 -50 13
-40 126 3 38 3 38 9 -14 5 -49 9 -55 33 -62 22 -6 27 -3 32 15 9 32 7 36 -11
36 -28 0 -50 17 -38 29 7 7 27 6 62 -3 49 -13 51 -13 57 7 3 12 2 25 -2 29 -7
6 -121 38 -139 38 -5 0 -17 -30 -27 -67z"/>
<path d="M1521 1224 c0 -11 3 -14 6 -6 3 7 2 16 -1 19 -3 4 -6 -2 -5 -13z"/>
<path d="M1917 1203 c-10 -10 -8 -101 2 -107 4 -3 9 21 10 54 1 60 0 66 -12
53z"/>
<path d="M538 1176 c-7 -33 37 -44 46 -12 5 20 -8 36 -30 36 -7 0 -14 -11 -16
-24z"/>
<path d="M1883 1145 c0 -27 2 -38 4 -22 2 15 2 37 0 50 -2 12 -4 0 -4 -28z"/>
<path d="M1337 1144 c-15 -15 -24 -30 -21 -35 3 -5 -2 -16 -10 -25 -9 -9 -16
-31 -15 -52 0 -20 3 -31 6 -24 2 6 11 12 19 12 9 0 12 -4 9 -10 -3 -5 -1 -10
4 -10 6 0 11 13 11 30 0 69 58 118 87 73 9 -14 21 -19 34 -16 49 13 -6 83 -66
83 -21 0 -41 -9 -58 -26z"/>
<path d="M310 1125 c0 -14 5 -25 10 -25 6 0 10 11 10 25 0 14 -4 25 -10 25 -5
0 -10 -11 -10 -25z"/>
<path d="M353 1090 c0 -30 2 -43 4 -27 2 15 2 39 0 55 -2 15 -4 2 -4 -28z"/>
<path d="M1521 1048 c-12 -46 -26 -96 -32 -112 -10 -33 -11 -31 17 -40 19 -6
23 -1 31 31 7 31 13 38 33 38 22 0 25 -5 28 -45 3 -43 14 -60 40 -60 8 0 12
17 12 50 0 37 5 55 20 70 23 23 27 77 7 103 -10 14 -99 46 -128 47 -4 0 -17
-37 -28 -82z m116 0 c14 -12 6 -38 -12 -38 -8 0 -25 4 -39 9 -18 8 -23 15 -19
31 5 17 11 20 32 15 14 -4 31 -11 38 -17z m33 -58 c0 -5 -2 -10 -4 -10 -3 0
-8 5 -11 10 -3 6 -1 10 4 10 6 0 11 -4 11 -10z"/>
<path d="M317 1083 c-11 -10 -8 -61 3 -68 6 -4 10 10 10 34 0 42 -2 46 -13 34z"/>
<path d="M1759 1058 c-1 -7 -1 -17 0 -22 1 -5 -2 -12 -7 -15 -5 -3 -16 -35
-25 -71 -9 -36 -19 -74 -23 -86 -5 -18 2 -23 59 -38 l65 -18 23 23 22 22 -29
-7 c-16 -4 -37 -9 -46 -12 -10 -3 -18 -1 -18 5 0 6 9 11 20 11 11 0 20 5 20
10 0 6 -8 10 -17 10 -30 0 -46 16 -39 38 5 15 15 20 39 18 26 -1 33 3 35 22 3
17 -2 22 -18 22 -20 0 -38 25 -27 36 3 3 28 -1 56 -9 36 -11 51 -12 52 -3 1 6
2 18 3 26 1 10 -18 21 -59 32 -73 21 -85 22 -86 6z"/>
<path d="M362 1000 c0 -14 2 -19 5 -12 2 6 2 18 0 25 -3 6 -5 1 -5 -13z"/>
<path d="M526 1004 c-3 -9 -6 -24 -6 -34 0 -9 -10 -25 -22 -34 -13 -9 -17 -14
-10 -11 7 4 12 -1 12 -13 0 -11 7 -22 15 -26 9 -3 15 -18 15 -35 0 -41 14 -46
39 -15 17 22 27 26 60 22 l40 -3 -19 32 c-18 30 -18 36 -4 68 13 31 13 35 -1
35 -9 0 -20 -11 -25 -25 -10 -26 -18 -30 -36 -17 -11 7 -28 42 -26 54 3 14
-27 16 -32 2z"/>
<path d="M1961 994 c-9 -20 -6 -24 18 -32 25 -9 27 -14 23 -43 -2 -19 -8 -38
-12 -44 -4 -5 -10 -23 -14 -40 -4 -16 -9 -39 -13 -50 -5 -19 -4 -19 9 -2 8 10
20 17 27 15 7 -2 16 4 18 12 4 13 3 13 -6 0 -6 -8 -11 -11 -11 -6 0 5 6 17 14
25 21 24 37 91 23 91 -7 0 -4 5 6 11 9 6 27 7 38 4 21 -7 39 7 39 31 0 13 -76
38 -90 29 -6 -3 -10 -2 -10 3 0 5 -11 12 -24 14 -18 4 -27 -1 -35 -18z m109
-33 c0 -9 -24 -21 -41 -21 -5 0 -9 7 -9 15 0 9 9 15 25 15 14 0 25 -4 25 -9z"/>
<path d="M320 979 c0 -11 5 -17 10 -14 6 3 10 13 10 21 0 8 -4 14 -10 14 -5 0
-10 -9 -10 -21z"/>
<path d="M720 985 c0 -5 5 -17 10 -25 5 -8 10 -10 10 -5 0 6 -5 17 -10 25 -5
8 -10 11 -10 5z"/>
<path d="M1300 980 c0 -24 41 -50 78 -50 44 0 84 31 60 46 -19 12 -138 15
-138 4z"/>
<path d="M333 925 c14 -55 22 -76 55 -147 21 -47 41 -78 50 -78 12 0 12 3 1
18 -8 9 -16 19 -19 22 -5 5 -22 47 -47 120 -9 25 -23 54 -30 65 l-15 20 5 -20z"/>
<path d="M381 904 c0 -11 3 -14 6 -6 3 7 2 16 -1 19 -3 4 -6 -2 -5 -13z"/>
<path d="M760 901 c5 -11 15 -23 21 -27 6 -3 3 5 -6 20 -20 30 -30 35 -15 7z"/>
<path d="M390 875 c0 -5 5 -17 10 -25 5 -8 10 -10 10 -5 0 6 -5 17 -10 25 -5
8 -10 11 -10 5z"/>
<path d="M820 825 c19 -19 36 -35 39 -35 3 0 -10 16 -29 35 -19 19 -36 35 -39
35 -3 0 10 -16 29 -35z"/>
<path d="M1385 804 c-30 -27 -32 -31 -9 -16 28 19 62 53 53 52 -2 -1 -22 -17
-44 -36z"/>
<path d="M1851 814 c0 -11 3 -14 6 -6 3 7 2 16 -1 19 -3 4 -6 -2 -5 -13z"/>
<path d="M653 788 c1 -44 -5 -59 -33 -73 -38 -20 -38 -28 3 -46 25 -11 33 -21
35 -46 4 -37 12 -41 35 -15 15 17 57 122 57 144 0 4 -11 8 -23 8 -13 0 -32 9
-42 20 -21 23 -33 26 -32 8z m27 -28 c0 -5 -5 -10 -11 -10 -5 0 -7 5 -4 10 3
6 8 10 11 10 2 0 4 -4 4 -10z"/>
<path d="M880 775 c0 -7 81 -47 86 -43 2 3 -17 14 -41 26 -25 12 -45 20 -45
17z"/>
<path d="M1450 758 c0 -41 -10 -57 -43 -75 l-31 -16 37 -18 c28 -15 38 -27 43
-55 l6 -35 30 28 c22 21 37 27 64 24 34 -3 35 -2 24 21 -7 12 -20 32 -29 42
-9 11 -11 17 -5 13 6 -3 18 9 27 27 l15 33 -39 -10 c-37 -9 -42 -8 -70 19
l-29 28 0 -26z"/>
<path d="M765 758 c-25 -76 -33 -118 -22 -118 7 0 23 -3 36 -7 l25 -6 -22 35
c-18 29 -20 41 -12 62 5 14 6 26 2 26 -4 0 0 5 8 10 10 7 11 10 2 10 -7 0 -14
-6 -17 -12z"/>
<path d="M1300 750 c-19 -11 -31 -19 -27 -20 11 0 67 29 67 35 0 7 -1 7 -40
-15z"/>
<path d="M450 745 c0 -17 91 -133 142 -180 l53 -50 -57 60 c-31 33 -75 87 -97
119 -23 33 -41 56 -41 51z"/>
<path d="M1777 681 c-20 -32 -43 -64 -52 -71 -8 -7 -15 -19 -15 -28 0 -19 40
24 86 95 36 55 39 63 25 63 -4 0 -24 -26 -44 -59z"/>
<path d="M1018 713 c7 -3 16 -2 19 1 4 3 -2 6 -13 5 -11 0 -14 -3 -6 -6z"/>
<path d="M1208 713 c7 -3 16 -2 19 1 4 3 -2 6 -13 5 -11 0 -14 -3 -6 -6z"/>
<path d="M1083 703 c20 -2 54 -2 75 0 20 2 3 4 -38 4 -41 0 -58 -2 -37 -4z"/>
<path d="M440 685 c0 -13 34 -57 52 -66 16 -9 15 -3 -8 30 -23 36 -44 52 -44
36z"/>
<path d="M924 646 c-4 -16 -1 -37 6 -51 8 -15 10 -39 6 -67 -4 -25 -4 -52 0
-61 5 -14 10 -11 31 14 23 27 30 30 66 24 l40 -7 -22 35 c-21 34 -21 38 -6 67
9 18 15 34 12 36 -10 10 -37 -10 -37 -28 0 -10 -4 -17 -10 -13 -5 3 -6 13 -3
22 5 11 3 14 -6 9 -8 -5 -24 2 -41 19 l-29 28 -7 -27z m96 -76 c0 -5 -4 -10
-10 -10 -5 0 -10 5 -10 10 0 6 5 10 10 10 6 0 10 -4 10 -10z"/>
<path d="M1664 594 c-39 -41 -69 -74 -67 -74 8 0 106 96 125 122 10 15 18 28
16 27 -2 0 -35 -34 -74 -75z"/>
<path d="M1225 613 c-5 -31 -13 -43 -41 -58 l-34 -18 38 -17 c30 -14 41 -25
45 -49 8 -37 19 -39 40 -7 14 21 22 23 58 19 l43 -6 -21 34 c-20 31 -20 37 -7
68 17 41 17 44 2 34 -25 -16 -63 -10 -89 14 l-27 25 -7 -39z"/>
<path d="M883 577 c-30 -13 -29 -21 2 -35 34 -15 35 -15 35 6 0 30 -13 40 -37
29z"/>
<path d="M540 560 c0 -13 131 -120 148 -120 7 0 10 5 7 11 -4 6 -9 8 -11 6 -3
-3 -33 22 -67 54 -62 58 -77 68 -77 49z"/>
<path d="M1630 519 c-41 -37 -168 -119 -180 -116 -3 1 -21 -8 -41 -21 -20 -12
-54 -24 -75 -27 -21 -2 -61 -10 -89 -16 -53 -11 -154 -13 -217 -3 -23 3 -38 2
-38 -4 0 -19 130 -26 224 -12 112 15 172 33 261 76 102 50 250 166 208 164 -4
-1 -28 -19 -53 -41z"/>
<path d="M774 436 c11 -9 24 -16 30 -16 12 0 7 5 -24 19 -24 11 -24 11 -6 -3z"/>
<path d="M744 406 c22 -18 120 -57 151 -60 12 -1 26 -6 33 -10 7 -4 12 -3 12
2 0 8 -137 63 -195 78 -20 5 -20 5 -1 -10z"/>
<path d="M830 410 c8 -5 20 -10 25 -10 6 0 3 5 -5 10 -8 5 -19 10 -25 10 -5 0
-3 -5 5 -10z"/>
<path d="M1278 373 c7 -3 16 -2 19 1 4 3 -2 6 -13 5 -11 0 -14 -3 -6 -6z"/>
<path d="M1218 363 c6 -2 18 -2 25 0 6 3 1 5 -13 5 -14 0 -19 -2 -12 -5z"/>
<path d="M1093 353 c15 -2 37 -2 50 0 12 2 0 4 -28 4 -27 0 -38 -2 -22 -4z"/>
</g>
</svg>
